1 & Over (2013)

93 min  - Comedy .


NFO:

Format                                   : AVI
Format/Info                              : Audio Video Interleave
Format profile                           : OpenDML
Format settings                          : rec
File size                                : 1.36 GiB
Duration                                 : 1h 29mn
Overall bit rate                         : 2 187 Kbps
Writing application                      : AVI-Mux GUI 1.17.8.3, Feb  201019:42:50



ID                                       : 0
Format                                   : MPEG-4 Visual
Format profile                           : Advanced Simple@L5
Format settings, BVOP                    : 2
Format settings, QPel                    : No
Format settings, GMC                     : No warppoints
Format settings, Matrix                  : Default (H.263)
Codec ID                                 : XVID
Codec ID/Hint                            : XviD
Duration                                 : 1h 29mn
Bit rate                                 : 1 990 Kbps
Width                                    : 720 pixels
Height                                   : 400 pixels
Display aspect ratio                     : 16:9
Frame rate                               : 25.000 fps
Color space                              : YUV
Chroma subsampling                       : 4:2:0
Bit depth                                : 8 bits
Scan type                                : Progressive
Compression mode                         : Lossy
Bits/(Pixel*Frame)                       : 0.276
Stream size                              : 1.24 GiB (91%)
Writing library                          : XviD 1.2.1 (UTC 2008-12-04)



Audio
ID                                       : 1
Format                                   : AC-3
Format/Info                              : Audio Coding 3
Mode extension                           : CM (complete main)
Format settings, Endianness              : Big
Codec ID                                 : 2000
Duration                                 : 1h 29mn
Bit rate mode                            : Constant
Bit rate                                 : 192 Kbps
Channel(s)                               : 2 channels
Channel positions                        : Front: L R
Sampling rate                            : 48.0 KHz
Bit depth                                : 16 bits
Compression mode                         : Lossy
Stream size                              : 123 MiB (9%)
Alignment                                : Aligned on interleaves
Interleave, duration                     : 64 ms (1.60 video frames)
Interleave, preload duration             : 192 ms
Title                                    : Audio-Cam



Director: Jon Lucas, Scott Moore

Stars: Miles Teller, Justin Chon, Sarah Wright

Cast:

Miles Teller ... Miller
Skylar Astin ... Casey
Justin Chon ... Jeff Chang
Sarah Wright ... Nicole
Jonathan Keltz ... Randy
Fran?ois Chau ... Dr. Chang
Russell Hodgkinson ... The Chief
Daniel Booko ... Julian
Russell Mercado ... Jayden
Josie Loren ... Pledge Aguilar
Christiann Castellanos ... Pledge Gomez
Dustin Ybarra ... PJ Brill
Samantha Futerman ... Sally Huang
Julian Gavilanes ... Stoner #1
Josh Truax ... Stoner #2



When Straight-A college student Jeff Chang's two best friends take him out for his 21st birthday on the night before an important medical school interview, what was supposed to be a quick beer becomes a night of humiliation, over indulgence and utter debauchery.

Screens: 
http://i.imgur.com/24Qg78j.png 
http://i.imgur.com/OwGVNnm.png 
http://i.imgur.com/EbNApjf.png 
http://i.imgur.com/QZREvae.png